<svg width="166" height="290" viewBox="0 0 166 290" fill="none" xmlns="http://www.w3.org/2000/svg">
<path d="M165.307 2.62463C164.375 1.00095 162.647 0 160.776 0H53.0865C50.845 0 48.8529 1.43003 48.1361 3.55383L1.98367 140.301C1.44593 141.896 1.70923 143.652 2.68998 145.018C3.67143 146.385 5.25122 147.196 6.9341 147.196H50.6862L0.330742 282.019C-0.559457 284.403 0.39761 287.082 2.59734 288.362C3.41927 288.84 4.32479 289.071 5.22266 289.071C6.72722 289.071 8.2088 288.422 9.23204 287.199L149.399 119.684C150.701 118.128 150.984 115.959 150.125 114.121C149.267 112.283 147.421 111.108 145.392 111.108H104.926L165.286 7.86134C166.23 6.24533 166.239 4.2483 165.307 2.62463ZM91.3094 113.694C90.3649 115.31 90.3565 117.307 91.2885 118.931C92.2198 120.554 93.948 121.555 95.8196 121.555H134.208L20.79 257.104L63.1086 143.799C63.7076 142.196 63.4827 140.4 62.5061 138.993C61.5302 137.587 59.9267 136.747 58.2146 136.747H14.211L56.8368 10.4484H151.67L91.3094 113.694Z" fill="#DFC901"/>
<path d="M50.3916 179.249C50.3916 183.371 47.7793 188.056 46.873 192.134C46.4571 194.006 45.299 195.694 44.8104 197.594C44.136 200.217 43.5548 202.898 42.7477 205.481C41.8017 208.508 41.7165 211.763 40.4424 214.629C39.6878 216.327 39.4497 220.755 37.7246 221.618" stroke="#DFC901" stroke-width="10" stroke-linecap="round"/>
<path d="M34.2303 226.859C34.0211 228.951 32.1982 231.257 31.5125 233.314C31.2798 234.012 31.081 235.382 30.6389 235.935C29.5398 237.309 28.8472 238.971 28.1152 240.618C26.83 243.51 26.0534 246.342 23.8443 248.796C23.2786 249.425 21.8387 252.335 22.0001 250.883C22.1317 249.699 23.396 248.433 23.8443 247.292C24.4636 245.715 25.6784 244.354 26.368 242.802C28.1185 238.864 30.5064 236.244 34.2303 234.382C37.95 232.522 40.1766 231.288 42.772 227.951C43.4146 227.125 45.6508 224.23 43.3787 225.792C39.9398 228.156 37.6519 231.847 34.3274 234.285C30.0919 237.391 27.7438 240.981 25.276 245.423C23.78 248.116 21.6203 250.332 20.2529 253.067" stroke="#DFC901" stroke-width="10" stroke-linecap="round"/>
<path d="M85.2393 48.3648H84.4783" stroke="#DFC901" stroke-width="10" stroke-linecap="round"/>
<path d="M56.0699 9.77362C56.0699 12.7886 55.54 15.2321 54.7838 17.8785C54.3231 19.4912 54.6354 21.2024 54.1044 22.9017C53.2757 25.5534 53.1549 28.4143 52.2359 31.0794C50.8837 35.0005 49.5181 39.5359 49.5181 43.6493C49.5181 46.266 47.3347 48.9867 46.1208 51.1718C44.1546 54.7109 41.8142 59.2543 41.1947 63.2807C40.6812 66.6185 38.5302 69.974 38.1615 73.1085C37.982 74.6336 36.941 75.8584 36.8511 77.4764C36.7918 78.5442 36.1005 79.7977 35.8804 80.8737C35.4588 82.9351 35.1909 85.0826 34.4487 87.0616C33.014 90.8876 32.202 95.5927 29.6197 98.8793C27.501 101.576 27.4056 105.925 25.9313 109.12C24.3724 112.497 23.976 117.048 21.6604 119.942C19.91 122.13 20.5267 125.33 19.7919 127.902C19.478 129 18.897 130.323 18.2874 131.42C16.9282 133.867 18.3002 133.516 19.7191 134.793C22.2999 137.116 27.7239 134.876 30.9544 135.594C34.4145 136.363 37.7953 135.57 41.219 135.57C45.2839 135.57 50.2679 136.401 53.886 134.793C54.9453 134.322 57.3636 134.36 58.1568 133.726C59.7081 132.485 60.7638 130.186 62.5976 128.581C68.0971 123.769 74.6757 120.73 80.0935 115.914C81.4117 114.742 82.7716 113.747 84.0247 112.42C84.6182 111.791 86.2955 109.343 86.1843 110.066C85.8217 112.423 84.1092 114.333 83.6121 116.569C83.2893 118.022 84.1904 117.059 84.7284 116.521C85.9711 115.278 87.3812 113.954 88.3926 112.517C92.8731 106.15 96.7097 99.4711 98.8756 91.8906C99.4128 90.0103 102.131 87.548 103.413 86.0424C104.644 84.5979 105.594 83.0292 106.519 81.3833C107.687 79.308 107.905 76.8605 109.019 74.8557C110.425 72.3244 113.7 70.5028 114.139 67.4302C114.379 65.7526 114.951 63.7189 115.716 62.1887C116.279 61.0644 116.715 59.9589 117.439 58.9128C118.159 57.8726 118.23 56.2155 119.065 55.2971C121.099 53.0595 124.019 51.4661 126.151 49.2305C128.878 46.3706 131.608 43.6299 133.795 40.3491C134.532 39.2429 135.166 38.0429 135.76 36.8547C136.115 36.1448 136.046 34.945 136.537 34.3311C137.005 33.7457 137.661 31.9302 137.75 31.1764C137.928 29.6626 139.061 28.6317 139.061 27.0269C139.061 25.8635 137.346 28.6303 137.095 29.0168C135.832 30.9598 134.669 32.9588 133.382 34.8892C130.096 39.8191 126.956 44.8608 124.015 50.0071C121.852 53.7922 119.616 57.3824 117.221 60.9754C115.508 63.5451 117.038 62.7431 118.337 60.8541C124.712 51.5818 130.565 41.8894 136.61 32.4868C138.661 29.2959 140.67 26.3534 142.215 22.8774C143.179 20.7085 142.607 16.3721 144.981 15.0151C147.494 13.5795 144.758 13.2305 143.234 13.9231C141.478 14.7214 144.212 14.9584 145.176 15.0151C145.636 15.0422 146.473 14.7631 146.826 14.4813C147.739 13.7503 145.009 14.1415 144.569 14.1415C140.636 14.1415 136.668 13.7048 132.703 13.7048C129.512 13.7048 125.385 14.1678 122.681 15.6703C121.879 16.1159 120.73 16.2971 119.842 16.5439C118.12 17.022 116.956 17.8719 115.425 18.7764C112.537 20.483 110.232 22.9386 110.232 26.3717C110.232 30.6551 119.698 29.4293 122.365 29.4293C126.158 29.4293 130.487 27.6422 132.727 24.4062C134.058 22.484 135.129 20.4701 135.129 18.0727C135.129 16.1901 134.226 14.2001 131.878 15.6946C129.731 17.0603 128.018 21.0676 127.024 23.3385C126.62 24.2622 125.765 25.158 125.544 26.1533C125.302 27.2438 126.84 26.7747 127.267 26.3717C128.618 25.0959 130.314 22.6811 127.947 21.567C123.86 19.6438 119.313 22.3789 116.08 24.6731C115.81 24.8653 109.036 31.3028 110.038 31.589C111.73 32.0722 115.023 31.8281 116.687 31.2735C118.431 30.6921 121.192 28.5717 120.691 31.8316C120.27 34.5679 119.507 38.2379 118.434 40.7859C117.127 43.8893 115.025 46.0994 113.532 49.0849C112.394 51.3612 110.958 53.4893 109.577 55.6368C109.004 56.5287 108.651 57.5354 108.073 58.4032C106.893 60.1717 109.697 54.4698 110.669 52.5793C113.058 47.9298 115.714 43.0819 118.531 38.699C119.321 37.4702 120.209 35.1628 121.37 34.234C121.753 33.9281 122.026 32.5894 122.026 33.5788C122.026 35.3275 122.249 37.2198 121.929 38.9416C121.731 40.0031 121.462 41.5663 121.055 42.5331C120.948 42.7872 120.266 44.2317 120.497 44.2317C123.64 44.2317 124.901 30.3776 125.083 28.5557C125.367 25.7156 123.982 28.5706 122.559 27.1483C119.811 24.3995 119.501 19.1847 117.002 16.1314C116.492 15.5071 116.088 14.1415 115.255 14.1415C113.931 14.1415 112.672 13.7048 111.348 13.7048C109.754 13.7048 108.107 13.3485 106.738 13.268C102.518 13.0197 98.196 13.268 93.9738 13.268C89.8511 13.268 85.5935 12.8158 81.6223 11.9333C79.4334 11.4469 75.2667 10.8396 73.4446 12.2973C71.5446 13.8173 67.2381 11.3562 65.0485 11.9818C62.9196 12.5901 61.9499 17.9345 61.5056 19.5287C60.8073 22.0344 60.0011 25.5059 60.0011 28.1189C60.0011 29.7534 59.0175 31.4539 58.715 33.1177C57.9198 37.491 55.5231 41.3244 53.8374 45.445C51.4121 51.3737 48.6525 57.356 46.8973 63.4991C45.8905 67.023 43.7149 70.3254 42.1896 73.5453C40.6817 76.7287 39.857 80.3777 38.6468 83.6886C37.086 87.9586 35.1486 92.8142 34.473 97.3505C33.8637 101.442 33.0951 105.377 31.7066 109.265C31.0618 111.071 29.8624 113.111 29.8624 115.041C29.8624 115.773 30.3122 119.45 29.6197 119.845C27.6168 120.99 25.883 122.563 24.2569 124.189C23.6392 124.807 21.1751 126.704 21.1751 127.926C21.1751 129.177 22.5134 130.39 23.4076 131.105C25.0843 132.446 31.4861 132.079 33.5751 131.614C36.3724 130.993 38.9972 130.007 41.8985 129.552C45.4684 128.992 49.3702 129.455 52.9881 129.455C54.7635 129.455 56.1025 128.495 57.5987 127.708C60.4374 126.214 63.1416 124.727 65.7764 122.903C69.317 120.452 66.1944 113.642 69.6105 111.983C74.6606 109.53 80.0962 108.372 84.6798 104.994C89.5006 101.442 92.8704 95.218 95.3813 89.9008C96.8801 86.7268 97.8437 83.0434 98.8513 79.6847C99.9116 76.1506 101.575 72.754 102.37 69.1774" stroke="#DFC901" stroke-width="10" stroke-linecap="round"/>
<path d="M119.842 11.5208C120.758 11.5208 124.162 12.4218 122.899 11.8605C121.788 11.3666 120.602 10.2104 119.405 10.2104" stroke="#DFC901" stroke-width="10" stroke-linecap="round"/>
<path d="M149.544 11.9576V12.8312" stroke="#DFC901" stroke-width="10" stroke-linecap="round"/>
<path d="M112.853 33.7972C114.795 34.0399 109.245 47.0049 108.485 48.2113C106.822 50.8524 105.655 54.6023 103.68 56.9472C102.487 58.3638 96.7581 73.0397 96.9586 73.0842C98.5599 73.4401 101.201 70.7729 102.273 69.8568C105.898 66.7582 109.452 63.5431 112.659 60.0047C114.302 58.1918 116.052 55.8053 117.997 54.3264C118.63 53.8459 119.659 52.9497 118.531 53.0161C117.021 53.1049 115.089 55.4877 114.163 56.5104C110.988 60.02 109.804 65.4514 107.175 69.3958C104.986 72.6792 103.085 75.7309 99.9676 78.1559C97.175 80.3279 96.6916 78.426 96.6916 75.1954C96.6916 69.7475 96.2765 64.21 97.905 58.937C99.6534 53.2755 102.324 48.0067 104.554 42.533C105.694 39.7341 107.215 36.7409 107.951 33.7972C108.651 30.9991 107.606 33.3378 107.175 34.7678C104.281 44.3629 102.57 54.4038 98.8756 63.7417C97.9012 66.2049 96.8963 68.5951 95.5997 70.9003C94.2722 73.2602 94.5077 70.9726 94.5077 69.3472C94.5077 65.0174 96.1051 61.3023 97.5652 57.2869C98.9545 53.4663 100.089 49.6703 101.302 45.809C102.287 42.6742 102.39 37.5943 104.457 35.0105C105.209 34.0709 105.864 29.8112 105.864 28.5557C105.864 26.4615 105.56 25.3907 103.68 24.2848C102.795 23.7639 99.6157 22.8774 102.467 22.8774C103.282 22.8774 108.502 23.0881 107.369 22.4406C105.182 21.1908 102.513 20.0842 99.9919 19.8441C97.8278 19.638 93.244 19.0661 91.3531 20.2566C89.5062 21.4195 87.5336 23.3843 86.1116 24.9643C85.4378 25.7129 85.7718 24.2085 85.7718 23.7024C85.7718 22.1054 85.9693 20.134 84.4615 19.1646C82.4455 17.8687 75.9867 15.344 73.9784 17.8543C72.9171 19.1809 71.0136 19.2903 69.8289 20.475C67.9191 22.3848 68.3001 26.4405 68.3001 28.8954C68.3001 33.6663 67.1783 38.2864 65.461 42.7514C64.525 45.185 65.2426 49.081 65.2426 51.6814C65.2426 57.962 71.7867 49.3675 73.0563 48.0657C76.7099 44.3197 79.9724 39.9369 83.1511 35.787C85.4733 32.7552 88.329 30.2367 90.6736 27.2453C91.4974 26.1943 92.6489 24.8616 93.8282 24.1878C94.3904 23.8665 94.0709 25.4182 94.0709 26.032C94.0709 31.6567 91.5396 37.0436 91.4501 42.6786C91.4066 45.4204 91.3129 48.5826 90.6008 51.0748C90.2626 52.2586 90.5765 53.9847 90.5765 55.2C90.5765 57.1401 89.9395 58.9195 89.7272 60.8298C89.6828 61.2295 89.2662 63.0483 89.2662 62.6255C89.2662 59.9518 90.0671 57.0791 90.5765 54.472C91.4928 49.7829 92.5464 45.1504 93.537 40.4947C93.872 38.9201 96.0075 34.2136 95.3813 33.1177C94.6452 31.8296 92.1448 29.4936 90.7949 31.4434C89.2085 33.7349 88.7524 37.6152 88.0529 40.252C87.1418 43.6862 86.9008 47.2435 86.0145 50.6622C85.8658 51.2359 84.7776 55.0161 85.4321 55.5397C86.5114 56.4032 88.8747 52.8804 89.2662 52.3366C92.5725 47.7445 94.5854 39.3731 92.7605 33.7972C91.1294 28.8133 86.9907 27.2453 82.1804 27.2453C78.2882 27.2453 75.7256 28.427 75.7256 32.7537C75.7256 36.0021 79.406 40.3491 82.9327 40.3491C85.7875 40.3491 84.9343 30.904 84.8982 28.9925C84.8597 26.9501 83.7701 22.4102 80.9671 22.8774C79.8117 23.0699 78.5025 28.0372 78.128 29.0167C76.899 32.231 75.9965 35.762 74.5123 38.8446C72.9729 42.0419 72.6681 45.1529 72.6681 48.6481C72.6681 49.3076 73.1952 50.0587 73.7843 50.3953C75.7198 51.5013 75.3494 49.3363 75.4829 47.8231C75.7441 44.8639 69.462 47.3378 67.6449 47.3378C65.9404 47.3378 63.4389 46.8832 61.8453 47.4348C57.2028 49.0418 55.3228 57.6397 54.7353 61.7519C54.5182 63.2717 53.7141 64.6977 53.0124 65.9257C51.4691 68.6265 50.4438 71.6222 49.0813 74.4189C47.2903 78.0951 44.9239 82.7868 44.7133 86.8917C44.5077 90.9025 41.0214 94.5505 39.6902 98.2483C38.5588 101.391 36.8943 104.406 35.9775 107.615C35.3026 109.977 34.6813 112.388 33.6965 114.604C33.0595 116.037 32.3538 117.111 31.2698 118.195C30.0832 119.382 29.5806 121.226 28.7704 122.684C28.5642 123.056 28.1375 124.272 28.1152 124.65C28.0405 125.921 30.8505 124.474 31.6096 124.189C36.7177 122.273 42.3672 122.899 47.5525 121.374C51.6334 120.174 56.3381 118.763 60.4379 118.535C63.8672 118.344 66.1162 115.797 66.1162 112.638C66.1162 107.891 70.2362 101.871 74.4152 99.4131C78.7946 96.837 84.5602 96.4024 88.2955 92.6671C89.4732 91.4894 88.8294 88.0599 88.8294 86.552C88.8294 82.7179 88.8294 78.8839 88.8294 75.0498C88.8294 69.2937 84.047 70.051 79.6567 70.051C78.4995 70.051 75.3307 69.459 75.2888 70.9245C75.2055 73.8418 74.5774 80.488 77.7154 82.2812C85.1406 86.5241 89.4278 71.0618 87.2763 66.1441C85.1379 61.2562 76.8642 66.5717 74.9491 68.9832C72.8532 71.6225 72.0527 74.5204 72.2313 77.9132C72.3628 80.4126 78.1639 78.0464 79.0015 77.0154C80.6386 75.0005 82.5118 68.4133 79.8751 66.3625C74.4887 62.173 72.8438 73.0927 72.4254 75.9234C71.3629 83.1105 73.1061 89.272 76.5021 95.3849C77.4385 97.0704 77.6243 93.7853 77.6912 93.3708C78.3436 89.3255 77.9096 84.9619 77.9096 80.8737C77.9096 77.2095 77.9096 73.5453 77.9096 69.8811C77.9096 68.9407 78.1988 65.9283 77.133 68.4009C74.097 75.4446 73.9784 83.275 73.9784 90.7986C73.9784 92.3811 75.0982 91.9923 75.8227 91.017C77.4739 88.7942 77.6271 86.2508 77.9096 83.5673C78.6159 76.8568 79.6259 68.0114 76.0653 61.849C75.1676 60.2951 73.9447 58.7298 72.2313 58.0634C69.4695 56.9894 67.8488 59.9174 66.553 61.849C61.8391 68.8753 60.0011 74.7502 60.0011 83.1062C60.0011 84.8917 59.6209 87.0859 61.9666 87.0859C65.4002 87.0859 66.319 75.5549 66.7471 73.1085C67.1214 70.9698 69.0335 65.2462 65.8735 65.2462C62.5648 65.2462 61.3115 70.2896 61.3115 72.7688C61.3115 74.3944 60.8536 76.7469 61.9666 78.1074C62.2748 78.4839 63.9358 80.5343 64.2719 79.5633C65.0404 77.3433 64.4937 73.3756 64.1263 71.1187C63.5453 67.5492 62.3018 64.4786 61.0931 61.121C60.7575 60.189 60.2519 58.1873 59.4672 57.481C58.4291 56.5468 58.6996 61.0784 58.715 61.3394C58.9497 65.3297 60.8299 69.541 62.7189 73.0114C63.5905 74.6127 65.277 77.9023 67.1839 78.4471C69.6984 79.1655 70.3296 76.4978 71.3577 74.613C73.361 70.9402 75.5915 67.0802 77.036 63.1593C77.8657 60.9072 78.3981 58.5764 79.2199 56.3163C79.8118 54.6887 79.8946 54.9447 79.5597 56.7531C78.5075 62.4347 74.8463 68.0561 72.8379 73.4725C70.4983 79.7825 68.1558 86.1221 66.553 92.6671C64.6552 100.416 62.7996 108.239 60.8747 115.938C60.689 116.681 56.8854 120.406 56.531 119.166C56.1442 117.812 58.0501 114.206 58.4966 113.051C60.1654 108.731 61.5999 104.178 62.9616 99.7528C63.7838 97.0806 64.4264 94.3734 65.2426 91.7207C65.711 90.1985 65.5709 90.0399 64.369 91.5509C62.318 94.1293 60.9556 97.2534 59.1275 99.9955C57.24 102.827 55.3334 105.917 53.6919 108.901C53.2333 109.735 49.5181 115.483 49.5181 113.706C49.5181 110.983 50.6296 108.69 51.702 106.208C53.4315 102.205 54.9318 98.173 56.5067 94.1231C57.2919 92.1041 57.7283 90.0802 58.351 88.0565C59.1271 85.5341 56.0188 90.0381 55.6574 90.5802C50.3479 98.5446 48.569 109.152 45.1501 118.001C44.9564 118.502 44.2766 121.019 44.2766 119.384C44.2766 114.403 45.3102 109.489 45.9267 104.558C46.6974 98.3918 48.0885 92.339 49.1055 86.2365C49.353 84.7519 49.5648 85.0728 48.6445 86.7461C46.6454 90.3808 45.3531 94.566 43.8398 98.4182C42.2473 102.472 40.6376 106.527 39.035 110.576C38.971 110.737 38.1615 112.423 38.1615 111.983C38.1615 111.714 38.4778 111.063 38.5983 111.304C39.1129 112.333 38.0403 114.051 37.5063 114.822C36.992 115.565 36.1453 117.152 37.3849 115.817C39.8031 113.213 41.6304 109.596 43.2331 106.45C46.0649 100.892 49.4509 95.6531 51.6535 89.7794C54.2682 82.807 57.629 76.2963 60.8747 69.6142C61.5246 68.2761 63.9652 61.08 65.6794 60.8783C68.3332 60.5661 70.7252 59.5679 73.5174 59.5679C76.928 59.5679 77.4761 57.6541 79.4141 54.8118C80.6828 52.951 82.2775 50.5315 82.2775 48.2113" stroke="#DFC901" stroke-width="10" stroke-linecap="round"/>
<path d="M104.554 29.4293C102.656 29.4293 101.137 30.9696 99.2881 31.2007C97.651 31.4054 96.1763 31.6133 94.5077 31.6133" stroke="#DFC901" stroke-width="10" stroke-linecap="round"/>
<path d="M83.151 25.0614C79.0207 25.0614 73.3115 26.0383 69.6105 24.1878" stroke="#DFC901" stroke-width="10" stroke-linecap="round"/>
<path d="M79.6567 76.1661C79.6567 79.9516 79.6567 83.7371 79.6567 87.5227C79.6567 89.0181 80.4328 89.7137 80.9914 91.017C81.3763 91.9151 84.0093 94.5021 81.8407 93.201" stroke="#DFC901" stroke-width="10" stroke-linecap="round"/>
<path d="M67.8633 124.213C67.8633 128.136 67.8633 132.059 67.8633 135.982C67.8633 137.328 68.5809 141.443 67.7663 142.461C67.0333 143.378 65.1749 143.086 64.8301 141.879C64.4458 140.534 64.9847 138.805 65.2669 137.535C65.7099 135.542 71.7083 136.265 73.4446 135.91C77.6253 135.054 80.3923 133.057 83.782 130.571C84.6096 129.964 86.2314 129.555 85.9417 128.338C85.5071 126.513 84.1296 124.254 82.957 122.806C77.6598 116.262 75.1588 126.265 73.76 130.741C73.046 133.026 74.2756 133.359 76.1624 132.415C77.6642 131.664 78.6961 129.58 79.4141 128.144C79.9974 126.978 81.119 124.201 82.5202 123.801C84.1769 123.327 86.586 123.776 88.2955 123.776C89.8737 123.776 91.0676 124.213 92.5421 124.213C94.8777 124.213 94.1593 123.816 92.3237 123C91.2834 122.538 89.813 122.641 88.9264 121.932C86.706 120.156 94.1835 123.241 95.1629 123.752C97.8169 125.137 100.876 126.184 103.68 127.174C104.152 127.34 104.06 126.617 104.36 126.446C104.707 126.247 105.487 126.397 105.864 126.397C107.239 126.397 108.614 126.397 109.99 126.397C111.357 126.397 112.721 126.397 113.945 126.397C115.726 126.397 117.179 125.524 118.968 125.524C122.009 125.524 125.082 124.213 128.141 124.213C129.505 124.213 127.941 124.287 127.364 124.65C126.223 125.368 125.252 126.423 124.307 127.368C122.9 128.775 121.756 131.12 120.084 132.075C118.043 133.242 116.296 135.803 113.969 136.468C113.079 136.722 112.214 138.978 111.3 139.501C110.166 140.149 109.347 141.598 108.388 142.461C107.572 143.196 105.554 143.691 105.015 144.5C103.85 146.247 108.194 141.685 109.359 139.938" stroke="#DFC901" stroke-width="10" stroke-linecap="round"/>
<path d="M133.819 122.029C130.438 122.029 128.548 123.188 126.054 125.184C124.418 126.492 122.89 128.92 121.589 130.547C119.578 133.06 116.938 135.463 114.26 137.317C112.833 138.306 111.638 139.557 110.257 140.593C109.324 141.292 107.761 142.601 107.175 143.626C105.759 146.103 103.593 148.981 102.807 151.731C102.445 152.997 101.98 153.79 101.157 154.449C100.739 154.783 98.5996 156.618 99.7492 155.468C102.779 152.438 106.415 150.015 109.14 146.684C110.54 144.973 112.705 142.558 113.63 140.811C113.711 140.658 115.647 138.276 114.358 139.331C112.2 141.096 109.719 143.048 108.048 145.276C105.999 148.009 103.805 150.783 101.084 152.823C98.4299 154.814 96.245 157.968 94.168 160.564C93.8852 160.917 92.8254 164.081 93.8525 163.282C94.9631 162.418 96.6963 161.335 97.5653 160.249C99.4348 157.912 92.8314 163.952 90.795 166.145C88.8574 168.232 86.6859 170.236 85.238 172.697C84.097 174.637 82.4991 176.538 80.7488 177.939C79.4526 178.976 77.7571 179.26 76.6963 180.996C76.1944 181.818 75.4272 183.21 74.755 183.957C71.8908 187.139 68.9055 190.187 66.0919 193.469C65.3831 194.296 59.7532 198.716 62.6219 195.847C65.405 193.064 68.3468 190.559 71.1393 187.767C72.5271 186.379 74.0593 184.936 75.2888 183.399C75.9259 182.602 76.9429 181.936 76.0654 183.471C74.9403 185.44 73.5806 187.515 72.7652 189.635C72.1899 191.131 71.2573 192.201 70.29 193.445C69.9012 193.945 68.2926 195.81 69.3922 194.1C71.0263 191.558 73.3104 189.598 74.8521 187.014C77.3647 182.804 80.4541 178.965 83.1511 174.881C88.2345 167.183 93.5188 159.389 96.6917 150.663C97.5657 148.26 98.0788 145.684 99.4095 143.432C101.148 140.491 103.68 138.711 103.68 135.133C103.68 133.575 104.654 132.512 102.467 132.512C101.32 132.512 100.449 132.411 99.5066 132.949C98.6567 133.435 93.8903 137.436 96.3519 138.288C98.7459 139.116 104.616 139.302 106.083 136.662C106.764 135.436 107.281 134.156 107.951 132.949C108.867 131.301 107.664 131.639 106.301 131.639C104.168 131.639 101.267 133.088 99.361 134.041C97.6392 134.902 95.7865 135.246 94.0709 136.104C92.8647 136.707 92.6083 136.02 92.2995 134.939C92.1401 134.381 91.197 135.011 91.0376 134.454C90.8837 133.915 91.1431 133.294 90.9891 132.755C90.6674 131.629 88.4273 135.069 88.2956 135.327C86.833 138.198 85.5812 141.186 84.8012 144.306C83.6887 148.756 82.4057 153.229 81.4282 157.628C81.3282 158.078 80.6066 159.02 81.0642 158.962C82.37 158.799 85.1419 153.14 85.8689 151.974C87.1984 149.841 89.4375 146.764 90.1398 144.306C90.2956 143.76 91.4851 141.386 90.9163 143.092C89.2675 148.039 86.5784 153.004 84.0247 157.507C81.5091 161.942 79.1791 167.663 75.0705 170.95C74.0747 171.747 72.9765 172.404 72.3284 173.571C71.9681 174.219 70.8572 176.541 71.018 176.094C72.217 172.764 74.5964 169.899 75.944 166.582C77.7671 162.095 79.3883 157.561 80.8701 152.944C82.0679 149.213 82.5382 145.242 83.3695 141.418C83.5378 140.644 83.9227 136.215 83.3452 137.123C78.7346 144.368 75.6193 152.834 73.4446 161.098C72.9464 162.991 72.5291 165.522 71.5761 167.237C71.1046 168.086 71.528 169.416 70.7025 170.076C70.2122 170.469 70.4707 168.998 70.4841 168.669C70.608 165.634 72.0526 162.784 72.6681 159.836C73.6716 155.03 74.7384 150.172 76.7934 145.689C77.2846 144.617 77.6474 143.579 78.0067 142.461C78.2118 141.823 79.3565 140.569 78.6861 140.569C78.297 140.569 77.1349 142.271 76.939 142.51C75.049 144.815 73.495 147.475 71.9886 150.033C68.464 156.018 66.8765 162.893 64.1264 169.179C63.3406 170.975 62.471 172.47 61.8453 174.347C60.7385 177.668 61.5255 173.842 61.9424 172.406C63.8367 165.881 67.403 159.919 69.2708 153.381C69.695 151.897 69.6105 150.426 69.6105 148.892C69.6105 147.098 67.0649 150.693 66.7714 151.052C64.9354 153.296 63.2212 156.667 63.0587 159.593C63.0076 160.513 62.5715 161.686 61.9909 162.433C61.5617 162.984 61.7483 163.657 61.7483 162.408C61.7483 161.022 61.968 159.834 62.1851 158.477C62.9633 153.613 64.8058 148.626 64.8058 143.699C64.8058 142.585 64.807 145.963 64.4661 147.023C63.6838 149.457 62.9006 151.878 62.2821 154.352C61.9089 155.845 61.2871 157.963 60.6563 159.351C60.2497 160.245 60.0926 162.49 59.3459 163.088C58.5672 163.711 58.0547 165.776 57.7201 166.679C57.1185 168.303 55.7264 170.053 55.6332 171.824C55.5653 173.113 55.1964 174.216 55.1964 175.536C55.1964 176.395 56.2024 178.222 55.9729 178.812C54.4346 182.768 52.0012 186.262 50.6343 190.363C49.8127 192.828 49.3334 195.28 48.3048 197.594C47.9794 198.326 47.5643 200.038 47.7952 200.846C48.1791 202.19 51.5331 198.685 51.7021 198.468C54.0718 195.421 55.7121 191.839 58.351 189.004C60.0174 187.214 60.794 184.639 62.5976 182.986C63.263 182.376 64.5045 181.197 64.9029 180.559C65.3417 179.857 66.8872 179.546 67.5237 178.909C68.517 177.916 69.6862 176.989 70.7025 175.973C71.7581 174.918 72.8147 173.413 71.1636 175.536C68.817 178.553 66.8963 181.792 64.8058 184.927" stroke="#DFC901" stroke-width="10" stroke-linecap="round"/>
<path d="M37.2878 229.043C37.2878 226.374 43.3762 222.289 45.4898 220.744C48.904 218.249 50.6136 213.7 53.4492 210.698C55.0674 208.985 57.1716 207.203 58.448 205.36C59.1495 204.346 60.8464 202.46 61.9666 201.962C62.8758 201.558 65.5514 200.652 63.6895 200.652C58.6963 200.652 53.4522 204.408 49.3239 206.767C48.4028 207.293 47.108 208.507 46.5575 209.388C45.4685 211.13 45.2531 210.724 47.3341 210.261C49.7084 209.734 52.5819 208.873 54.6625 207.641C56.3058 206.667 57.5373 205.387 59.1275 204.365C61.497 202.841 63.306 200.528 65.6793 199.342" stroke="#DFC901" stroke-width="10" stroke-linecap="round"/>
</svg>
