<?xml version="1.0" standalone="no"?>
<!DOCTYPE svg PUBLIC "-//W3C//DTD SVG 20010904//EN"
 "http://www.w3.org/TR/2001/REC-SVG-20010904/DTD/svg10.dtd">
<svg version="1.0" xmlns="http://www.w3.org/2000/svg"
 width="468.000000pt" height="458.000000pt" viewBox="0 0 468.000000 458.000000"
 preserveAspectRatio="xMidYMid meet">

<g transform="translate(0.000000,458.000000) scale(0.100000,-0.100000)"
fill="#000000" stroke="none">
<path d="M603 4395 c-171 -46 -313 -190 -358 -360 -13 -52 -15 -265 -15 -1755
0 -1843 -3 -1746 55 -1859 35 -71 128 -166 199 -206 124 -69 -2 -65 1876 -65
1849 0 1745 -3 1862 56 71 36 169 132 207 203 65 122 61 4 61 1871 0 1867 4
1749 -61 1871 -38 71 -136 167 -207 203 -117 59 -12 56 -1867 55 -1430 0
-1708 -3 -1752 -14z m1883 -619 c228 -106 236 -433 14 -546 l-40 -20 0 -318 0
-318 67 -29 c46 -20 85 -47 125 -87 l59 -59 282 93 282 93 7 48 c14 100 80
186 177 230 64 30 178 30 242 1 112 -52 179 -156 179 -280 0 -59 -5 -81 -30
-132 -56 -112 -145 -167 -270 -167 -85 0 -142 21 -202 74 l-37 32 -284 -93
-285 -93 -6 -58 c-8 -70 -29 -130 -61 -179 -14 -21 -25 -42 -25 -47 0 -10 360
-512 391 -545 15 -16 30 -19 89 -17 100 3 162 -19 226 -83 89 -90 114 -224 62
-336 -35 -78 -70 -114 -140 -149 -110 -55 -242 -39 -333 41 -25 22 -58 64 -73
92 -23 44 -27 63 -27 136 0 70 4 93 23 128 l23 44 -25 36 c-140 202 -386 527
-397 525 -8 -1 -42 -7 -76 -14 -50 -10 -76 -10 -125 0 -35 7 -69 13 -77 14
-10 2 -267 -337 -396 -523 l-25 -35 26 -65 c49 -120 17 -251 -81 -338 -57 -50
-119 -72 -205 -72 -54 0 -78 6 -128 31 -69 34 -105 72 -138 144 -36 80 -40
133 -14 216 40 132 148 211 290 210 33 0 64 -2 69 -5 4 -3 17 5 28 17 36 40
393 537 393 547 0 6 -11 27 -25 48 -32 49 -53 109 -61 180 l-6 58 -285 92
-284 93 -37 -32 c-60 -53 -117 -74 -202 -74 -127 0 -223 62 -275 176 -23 53
-27 71 -23 138 6 124 66 214 177 264 71 33 179 30 253 -6 94 -46 155 -131 173
-239 l6 -36 280 -92 280 -91 57 59 c41 41 78 67 125 87 l67 29 0 318 0 318
-40 20 c-180 92 -218 341 -75 485 59 58 126 85 215 85 58 0 87 -6 126 -24z"/>
</g>
</svg>
