<svg width="349" height="691" viewBox="0 0 349 691" fill="none" xmlns="http://www.w3.org/2000/svg">
<path d="M130.911 622.531L131.099 556.93C131.103 555.3 130.01 553.87 128.435 553.448V553.448C127.001 553.123 124.59 552.471 123.092 552.081C112.34 549.411 89.9239 539.059 78.2599 531.44C58.1248 518.353 39.6187 499.536 26.6514 479.221C15.8996 462.357 7.16785 440.284 3.25811 420.425C0.456136 405.971 0.456132 407.794 0.260645 301.662L0.0804544 231.756C0.0360542 214.531 13.9874 200.544 31.2127 200.544V200.544H54.1471C58.781 200.544 62.5976 196.903 62.8164 192.274V192.274C63.0771 187.651 63.2726 147.673 63.2726 103.332C63.2726 23.6355 63.2726 22.7239 64.641 18.7521C68.8114 6.38093 79.8238 -0.586006 93.8988 0.130221C106.215 0.781337 114.49 6.12048 119.442 16.6686V16.6686C120.858 19.6264 121.597 22.8628 121.604 26.142L121.788 110.885L121.843 148.414C121.885 177.217 145.246 200.544 174.048 200.544V200.544V200.544C202.851 200.544 226.212 177.217 226.254 148.414L226.309 110.885L226.492 26.5788C226.5 23.0123 227.306 19.4927 228.85 16.2779V16.2779C233.998 5.72982 243.446 0 255.697 0C267.817 0 277.07 5.40426 282.022 15.4966V15.4966C283.651 18.7515 284.505 22.3388 284.519 25.9784L284.824 110.299C284.913 132.679 285.014 153.221 285.105 169.022C285.225 189.825 295.95 200.544 316.754 200.544V200.544V200.544C334.051 200.544 348.06 214.589 348.016 231.886L347.836 301.011C347.641 391.711 347.51 402.259 346.533 409.877C342.688 438.526 332.328 464.245 314.147 489.964C313.626 490.681 311.02 493.936 308.348 497.127C297.857 509.693 283.717 522.26 269.25 531.831C257.391 539.644 236.865 548.955 223.116 552.732V552.732C219.476 553.732 217.467 556.289 217.376 560.062C217.154 569.167 217.056 589.511 217.056 622.662L217.079 647.305C217.102 671.19 197.803 690.595 173.918 690.703V690.703V690.703C150.099 690.775 130.771 671.45 130.839 647.631L130.911 622.531ZM164.013 453.111C171.116 444.126 177.893 435.596 178.936 434.229C183.236 428.694 187.016 423.876 192.294 417.235C195.356 413.458 200.765 406.557 204.349 401.999C207.933 397.506 213.406 390.474 216.599 386.502C219.727 382.53 225.136 375.629 228.654 371.201C232.108 366.838 237.777 359.611 241.231 355.249V355.249C243.769 352.052 241.508 347.336 237.427 347.312L213.406 347.175L181.671 347.054C180.339 347.049 179.261 345.967 179.261 344.635V344.635C179.261 343.333 179.652 341.77 180.109 341.25C180.63 340.664 182.454 337.603 184.279 334.348C186.038 331.157 188.58 326.665 189.883 324.451C191.251 322.172 193.271 318.656 194.444 316.637C195.682 314.554 198.354 309.931 200.439 306.35C207.216 294.63 210.539 288.9 210.539 288.77C210.539 288.705 212.429 285.449 214.775 281.607C217.121 277.701 219.01 274.315 219.01 273.989C219.01 273.729 207.477 273.469 193.467 273.469H176.315C171.088 273.469 166.265 276.279 163.688 280.826V280.826C161.407 284.798 158.214 290.463 156.585 293.328C155.021 296.192 153.001 299.578 152.219 300.815C151.437 302.052 147.723 308.368 144.074 314.814C140.36 321.26 135.863 329.009 134.104 332.069C130.259 338.58 127.979 342.552 119.964 356.486C116.64 362.216 112.34 369.703 110.32 373.089C108.365 376.475 105.563 381.358 104.129 383.833C102.696 386.372 100.806 389.497 99.9589 390.8V390.8C99.2995 391.888 100.08 393.28 101.353 393.285L133.127 393.404L166.412 393.591C167.242 393.596 167.941 394.21 168.053 395.032V395.032C168.184 395.878 167.663 398.938 166.946 401.868C166.229 404.864 162.254 421.076 158.084 437.875C153.978 454.739 150.46 468.868 150.264 469.324C149.613 471.147 151.567 468.868 164.013 453.111Z" fill="#F4F4F4"/>
</svg>
