<svg width="1028" height="1028" viewBox="0 0 1028 1028" fill="none" xmlns="http://www.w3.org/2000/svg">
<rect width="1028" height="1028" rx="500" fill="#1E1F22"/>
<path d="M471.457 791.213L471.644 725.611C471.649 723.981 470.556 722.552 468.981 722.129V722.129C467.547 721.804 465.136 721.153 463.637 720.762C452.886 718.092 430.47 707.74 418.806 700.122C398.671 687.034 380.164 668.217 367.197 647.902C356.445 631.038 347.714 608.965 343.804 589.106C341.002 574.652 341.002 576.475 340.806 470.343L340.626 400.437C340.582 383.212 354.533 369.225 371.759 369.225V369.225H394.693C399.327 369.225 403.143 365.584 403.362 360.956V360.956C403.623 356.333 403.818 316.354 403.818 272.013C403.818 192.317 403.818 191.405 405.187 187.433C409.357 175.062 420.37 168.095 434.445 168.811C446.76 169.462 455.036 174.802 459.988 185.35V185.35C461.404 188.308 462.142 191.544 462.149 194.823L462.334 279.566L462.389 317.095C462.43 345.898 485.791 369.225 514.594 369.225V369.225V369.225C543.397 369.225 566.758 345.898 566.8 317.095L566.854 279.566L567.038 195.26C567.046 191.693 567.851 188.174 569.396 184.959V184.959C574.543 174.411 583.992 168.681 596.243 168.681C608.363 168.681 617.616 174.085 622.568 184.178V184.178C624.197 187.433 625.051 191.02 625.064 194.66L625.37 278.98C625.458 301.36 625.56 321.902 625.651 337.703C625.771 358.506 636.496 369.225 657.3 369.225V369.225V369.225C674.597 369.225 688.606 383.271 688.561 400.568L688.382 469.692C688.187 560.392 688.056 570.94 687.079 578.558C683.234 607.207 672.873 632.926 654.693 658.646C654.172 659.362 651.565 662.617 648.894 665.808C638.403 678.374 624.262 690.941 609.796 700.512C597.937 708.326 577.411 717.637 563.661 721.413V721.413C560.022 722.413 558.013 724.971 557.921 728.743C557.7 737.848 557.601 758.192 557.601 791.343L557.625 815.986C557.648 839.871 538.349 859.276 514.464 859.384V859.384V859.384C490.645 859.456 471.317 840.131 471.385 816.312L471.457 791.213ZM504.559 621.792C511.662 612.807 518.439 604.277 519.481 602.91C523.782 597.376 527.561 592.557 532.84 585.916C535.902 582.139 541.311 575.238 544.895 570.68C548.479 566.187 553.952 559.155 557.145 555.183C560.273 551.211 565.681 544.31 569.2 539.882C572.654 535.52 578.323 528.292 581.776 523.93V523.93C584.315 520.733 582.054 516.017 577.972 515.994L553.952 515.856L522.216 515.735C520.884 515.73 519.807 514.649 519.807 513.317V513.317C519.807 512.014 520.198 510.452 520.654 509.931C521.176 509.345 523 506.285 524.825 503.029C526.584 499.838 529.125 495.346 530.429 493.132C531.797 490.853 533.817 487.337 534.99 485.319C536.228 483.235 538.9 478.612 540.985 475.031C547.762 463.311 551.085 457.581 551.085 457.451C551.085 457.386 552.975 454.13 555.321 450.289C557.666 446.382 559.556 442.996 559.556 442.671C559.556 442.41 548.022 442.15 534.013 442.15H516.861C511.634 442.15 506.811 444.96 504.233 449.507V449.507C501.953 453.479 498.76 459.144 497.131 462.009C495.567 464.874 493.547 468.259 492.765 469.497C491.983 470.734 488.269 477.049 484.62 483.495C480.905 489.942 476.409 497.69 474.65 500.75C470.805 507.261 468.524 511.233 460.51 525.167C457.186 530.897 452.886 538.385 450.866 541.77C448.911 545.156 446.109 550.039 444.675 552.514C443.242 555.053 441.352 558.178 440.505 559.481V559.481C439.845 560.569 440.626 561.961 441.899 561.966L473.672 562.085L506.958 562.272C507.787 562.277 508.487 562.891 508.599 563.713V563.713C508.73 564.559 508.208 567.62 507.492 570.55C506.775 573.545 502.8 589.758 498.629 606.556C494.524 623.42 491.005 637.549 490.81 638.005C490.158 639.828 492.113 637.549 504.559 621.792Z" fill="#5FD3AA"/>
</svg>
