<?xml version="1.0" standalone="no"?>
<!DOCTYPE svg PUBLIC "-//W3C//DTD SVG 20010904//EN"
 "http://www.w3.org/TR/2001/REC-SVG-20010904/DTD/svg10.dtd">
<svg version="1.0" xmlns="http://www.w3.org/2000/svg"
 width="1014.000000pt" height="260.000000pt" viewBox="0 0 1014.000000 260.000000"
 preserveAspectRatio="xMidYMid meet">
<metadata>
Created by potrace 1.16, written by Peter Selinger 2001-2019
</metadata>
<g transform="translate(0.000000,260.000000) scale(0.100000,-0.100000)"
fill="#000000" stroke="none">
<path d="M5007 2463 c-4 -3 -7 -77 -7 -164 0 -147 1 -159 20 -169 15 -8 21 -6
30 9 11 21 14 288 4 315 -6 16 -35 22 -47 9z"/>
<path d="M5422 2157 c-61 -62 -112 -120 -112 -130 0 -38 41 -12 149 97 99 99
113 117 102 130 -8 9 -16 16 -20 16 -3 0 -57 -51 -119 -113z"/>
<path d="M4507 2253 c-18 -18 2 -47 101 -146 102 -102 132 -121 148 -96 6 10
-221 249 -237 249 -3 0 -9 -3 -12 -7z"/>
<path d="M4577 1870 c-34 -18 -56 -20 -253 -20 -200 0 -219 -2 -249 -20 -36
-22 -65 -81 -65 -130 l0 -30 -72 0 c-121 0 -178 -47 -178 -147 l0 -43 -156 0
c-85 0 -163 -4 -173 -10 -12 -6 -75 -3 -187 10 -278 31 -446 40 -776 40 -611
0 -1077 -58 -1663 -207 -312 -79 -408 -101 -595 -137 -100 -20 -186 -38 -191
-41 -15 -10 -10 -45 6 -45 41 0 444 87 691 149 343 86 422 104 644 141 182 30
357 53 545 71 178 17 805 23 983 10 174 -13 451 -40 468 -46 8 -2 9 -18 1 -55
l-10 -52 -51 6 c-296 36 -381 40 -826 40 -405 0 -478 -2 -659 -22 -359 -39
-667 -94 -961 -172 -230 -60 -517 -126 -675 -155 -170 -31 -167 -30 -163 -57
2 -19 8 -22 33 -20 82 9 460 90 702 152 535 136 868 190 1358 221 211 13 714
7 910 -11 208 -18 359 -40 375 -54 40 -35 68 -41 215 -46 l150 -5 6 -46 c14
-98 55 -129 172 -129 l77 0 0 -38 c0 -50 29 -102 71 -127 30 -18 58 -21 259
-26 158 -3 234 -9 256 -19 44 -19 92 -4 121 39 l23 34 0 464 c0 516 1 511 -65
539 -45 18 -53 18 -98 -6z m91 -52 c17 -17 17 -939 0 -956 -15 -15 -61 -15
-76 0 -16 16 -17 919 -2 949 12 22 59 26 78 7z m-148 -478 l0 -460 -199 0
c-197 0 -200 0 -228 24 l-28 24 0 412 0 412 28 24 c28 24 31 24 228 24 l199 0
0 -460z m-510 0 l0 -270 -77 0 c-118 0 -113 -12 -113 268 0 284 -5 272 112
272 l78 0 0 -270z m-250 0 l0 -90 -150 0 c-147 0 -152 1 -175 25 -19 18 -25
35 -25 65 0 30 6 47 25 65 23 24 28 25 175 25 l150 0 0 -90z"/>
<path d="M3904 1537 c-2 -7 -3 -100 -2 -207 3 -187 4 -195 23 -195 19 0 20 8
23 199 2 153 -1 201 -10 208 -18 11 -28 10 -34 -5z"/>
<path d="M5907 1870 c-34 -18 -56 -20 -253 -20 -200 0 -219 -2 -249 -20 -36
-22 -65 -81 -65 -130 l0 -30 -143 0 c-158 0 -180 -7 -192 -59 -7 -33 15 -85
40 -95 9 -3 79 -6 156 -6 l139 0 0 -170 0 -170 -141 0 -141 0 -30 -30 c-25
-26 -29 -36 -24 -63 12 -58 22 -62 184 -67 l147 -5 6 -46 c8 -57 32 -94 73
-117 26 -14 70 -18 256 -23 158 -3 234 -9 256 -19 44 -19 92 -4 121 39 18 27
23 48 23 101 l0 68 90 4 c85 3 91 5 121 34 23 23 33 44 36 77 l5 45 56 11 c30
6 94 11 142 11 72 0 95 4 136 25 50 25 211 50 489 75 196 18 699 24 910 11
492 -31 834 -87 1380 -226 252 -65 627 -145 678 -145 22 0 27 4 27 24 0 22 -6
25 -72 36 -142 23 -415 82 -583 126 -480 125 -766 178 -1185 221 -139 14 -266
18 -615 18 -436 0 -510 -4 -813 -41 -73 -9 -134 -15 -137 -13 -2 2 -5 27 -7
54 l-3 50 130 17 c300 38 574 51 940 45 421 -7 624 -24 980 -83 220 -36 316
-57 665 -144 263 -66 650 -150 689 -150 6 0 11 11 11 24 0 19 -7 26 -27 30
-290 56 -447 90 -688 151 -668 169 -1097 225 -1738 225 -358 1 -718 -23 -939
-61 -46 -8 -63 -7 -87 6 -23 12 -65 15 -186 15 l-155 0 0 48 c0 51 -25 103
-59 121 -10 6 -58 14 -105 17 l-86 7 0 64 c0 75 -18 116 -60 138 -38 20 -58
19 -103 -5z m91 -52 c17 -17 17 -939 0 -956 -15 -15 -61 -15 -76 0 -16 16 -17
919 -2 949 12 22 59 26 78 7z m-148 -478 l0 -460 -199 0 c-197 0 -200 0 -228
24 l-28 24 0 159 0 158 90 5 90 5 3 82 3 82 -93 3 -93 3 0 163 0 164 28 24
c28 24 31 24 228 24 l199 0 0 -460z m-510 250 l0 -30 -135 0 c-141 0 -157 5
-141 45 4 12 30 15 141 15 l135 0 0 -30z m909 -5 c12 -16 18 -36 16 -53 -2
-15 -4 -118 -4 -229 -1 -242 3 -233 -112 -233 l-79 0 0 270 0 270 79 0 c73 0
81 -2 100 -25z m396 -180 c19 -18 25 -35 25 -65 0 -30 -6 -47 -25 -65 -23 -24
-28 -25 -175 -25 l-150 0 0 90 0 90 150 0 c147 0 152 -1 175 -25z m-1307 -318
l3 -28 -138 3 c-126 3 -138 5 -141 22 -6 31 17 36 148 34 l125 -3 3 -28z"/>
<path d="M6142 1538 c-8 -8 -12 -67 -12 -199 0 -159 2 -189 16 -200 14 -11 18
-10 30 6 11 14 14 60 14 193 0 194 -11 237 -48 200z"/>
<path d="M5310 662 c0 -9 52 -69 115 -132 109 -109 116 -114 132 -97 17 16 12
23 -97 132 -110 110 -150 136 -150 97z"/>
<path d="M4606 561 c-106 -106 -126 -141 -86 -149 23 -4 242 221 234 242 -12
32 -41 14 -148 -93z"/>
<path d="M5010 382 c0 -138 3 -171 14 -175 31 -12 37 19 34 179 -3 156 -3 159
-25 162 l-23 3 0 -169z"/>
</g>
</svg>
